solid
  facet normal +0.0000000E+00 +0.0000000E+00 +1.0000000E+00
    outer loop      
      vertex   +1.4157650E+00 +5.3723748E+00 +1.3500000E+00
      vertex   +1.8912933E+00 +5.5268833E+00 +1.3500000E+00
      vertex   +1.8202735E+00 +5.6662674E+00 +1.3500000E+00
    endloop
  endfacet
  facet normal +0.0000000E+00 +0.0000000E+00 +1.0000000E+00
    outer loop      
      vertex   +1.8202735E+00 +5.6662674E+00 +1.3500000E+00
      vertex   +1.7096576E+00 +5.7768833E+00 +1.3500000E+00
      vertex   +1.4157650E+00 +5.3723748E+00 +1.3500000E+00
    endloop
  endfacet
  facet normal +0.0000000E+00 +0.0000000E+00 +1.0000000E+00
    outer loop      
      vertex   +1.7096576E+00 +5.7768833E+00 +1.3500000E+00
      vertex   +1.5702735E+00 +5.8479030E+00 +1.3500000E+00
      vertex   +1.4157650E+00 +5.3723748E+00 +1.3500000E+00
    endloop
  endfacet
  facet normal +0.0000000E+00 +0.0000000E+00 +1.0000000E+00
    outer loop      
      vertex   +1.5702735E+00 +5.8479030E+00 +1.3500000E+00
      vertex   +1.4157650E+00 +5.8723748E+00 +1.3500000E+00
      vertex   +1.4157650E+00 +5.3723748E+00 +1.3500000E+00
    endloop
  endfacet
  facet normal +0.0000000E+00 +0.0000000E+00 +1.0000000E+00
    outer loop      
      vertex   +1.4157650E+00 +5.8723748E+00 +1.3500000E+00
      vertex   +1.2612565E+00 +5.8479030E+00 +1.3500000E+00
      vertex   +1.4157650E+00 +5.3723748E+00 +1.3500000E+00
    endloop
  endfacet
  facet normal +0.0000000E+00 +0.0000000E+00 +1.0000000E+00
    outer loop      
      vertex   +1.2612565E+00 +5.8479030E+00 +1.3500000E+00
      vertex   +1.1218724E+00 +5.7768833E+00 +1.3500000E+00
      vertex   +1.4157650E+00 +5.3723748E+00 +1.3500000E+00
    endloop
  endfacet
  facet normal +0.0000000E+00 +0.0000000E+00 +1.0000000E+00
    outer loop      
      vertex   +1.1218724E+00 +5.7768833E+00 +1.3500000E+00
      vertex   +1.0112565E+00 +5.6662674E+00 +1.3500000E+00
      vertex   +1.4157650E+00 +5.3723748E+00 +1.3500000E+00
    endloop
  endfacet
  facet normal +0.0000000E+00 +0.0000000E+00 +1.0000000E+00
    outer loop      
      vertex   +1.0112565E+00 +5.6662674E+00 +1.3500000E+00
      vertex   +9.4023680E-01 +5.5268833E+00 +1.3500000E+00
      vertex   +1.4157650E+00 +5.3723748E+00 +1.3500000E+00
    endloop
  endfacet
  facet normal +0.0000000E+00 +0.0000000E+00 +1.0000000E+00
    outer loop      
      vertex   +9.4023680E-01 +5.5268833E+00 +1.3500000E+00
      vertex   +9.1576506E-01 +5.3723748E+00 +1.3500000E+00
      vertex   +1.4157650E+00 +5.3723748E+00 +1.3500000E+00
    endloop
  endfacet
  facet normal +0.0000000E+00 +0.0000000E+00 +1.0000000E+00
    outer loop      
      vertex   +9.1576506E-01 +5.3723748E+00 +1.3500000E+00
      vertex   +9.4023680E-01 +5.2178663E+00 +1.3500000E+00
      vertex   +1.4157650E+00 +5.3723748E+00 +1.3500000E+00
    endloop
  endfacet
  facet normal +0.0000000E+00 +0.0000000E+00 +1.0000000E+00
    outer loop      
      vertex   +9.4023680E-01 +5.2178663E+00 +1.3500000E+00
      vertex   +1.0112565E+00 +5.0784821E+00 +1.3500000E+00
      vertex   +1.4157650E+00 +5.3723748E+00 +1.3500000E+00
    endloop
  endfacet
  facet normal +0.0000000E+00 +0.0000000E+00 +1.0000000E+00
    outer loop      
      vertex   +1.0112565E+00 +5.0784821E+00 +1.3500000E+00
      vertex   +1.1218724E+00 +4.9678663E+00 +1.3500000E+00
      vertex   +1.4157650E+00 +5.3723748E+00 +1.3500000E+00
    endloop
  endfacet
  facet normal +0.0000000E+00 +0.0000000E+00 +1.0000000E+00
    outer loop      
      vertex   +1.1218724E+00 +4.9678663E+00 +1.3500000E+00
      vertex   +1.2612565E+00 +4.8968465E+00 +1.3500000E+00
      vertex   +1.4157650E+00 +5.3723748E+00 +1.3500000E+00
    endloop
  endfacet
  facet normal +0.0000000E+00 +0.0000000E+00 +1.0000000E+00
    outer loop      
      vertex   +1.2612565E+00 +4.8968465E+00 +1.3500000E+00
      vertex   +1.4157650E+00 +4.8723748E+00 +1.3500000E+00
      vertex   +1.4157650E+00 +5.3723748E+00 +1.3500000E+00
    endloop
  endfacet
  facet normal +0.0000000E+00 +0.0000000E+00 +1.0000000E-00
    outer loop      
      vertex   +1.4157650E+00 +4.8723748E+00 +1.3500000E+00
      vertex   +1.5702735E+00 +4.8968465E+00 +1.3500000E+00
      vertex   +1.4157650E+00 +5.3723748E+00 +1.3500000E+00
    endloop
  endfacet
  facet normal +0.0000000E+00 +0.0000000E+00 +1.0000000E+00
    outer loop      
      vertex   +1.5702735E+00 +4.8968465E+00 +1.3500000E+00
      vertex   +1.7096576E+00 +4.9678663E+00 +1.3500000E+00
      vertex   +1.4157650E+00 +5.3723748E+00 +1.3500000E+00
    endloop
  endfacet
  facet normal +0.0000000E+00 +0.0000000E+00 +1.0000000E+00
    outer loop      
      vertex   +1.7096576E+00 +4.9678663E+00 +1.3500000E+00
      vertex   +1.8202735E+00 +5.0784821E+00 +1.3500000E+00
      vertex   +1.4157650E+00 +5.3723748E+00 +1.3500000E+00
    endloop
  endfacet
  facet normal +0.0000000E+00 +0.0000000E+00 +1.0000000E+00
    outer loop      
      vertex   +1.8202735E+00 +5.0784821E+00 +1.3500000E+00
      vertex   +1.8912933E+00 +5.2178663E+00 +1.3500000E+00
      vertex   +1.4157650E+00 +5.3723748E+00 +1.3500000E+00
    endloop
  endfacet
  facet normal +0.0000000E+00 +0.0000000E+00 +1.0000000E+00
    outer loop      
      vertex   +1.8912933E+00 +5.2178663E+00 +1.3500000E+00
      vertex   +1.9157650E+00 +5.3723748E+00 +1.3500000E+00
      vertex   +1.4157650E+00 +5.3723748E+00 +1.3500000E+00
    endloop
  endfacet
  facet normal +0.0000000E+00 +0.0000000E+00 +1.0000000E+00
    outer loop      
      vertex   +1.9157650E+00 +5.3723748E+00 +1.3500000E+00
      vertex   +1.8912933E+00 +5.5268833E+00 +1.3500000E+00
      vertex   +1.4157650E+00 +5.3723748E+00 +1.3500000E+00
    endloop
  endfacet
  facet normal -9.8768834E-01 +1.5643446E-01 +0.0000000E+00
    outer loop      
      vertex   +1.8912933E+00 +5.2178663E+00 +1.4500000E+00
      vertex   +1.9157650E+00 +5.3723748E+00 +1.4500000E+00
      vertex   +1.9157650E+00 +5.3723748E+00 +1.3500000E+00
    endloop
  endfacet
  facet normal -8.9100652E-01 +4.5399049E-01 +0.0000000E+00
    outer loop      
      vertex   +1.8202735E+00 +5.0784821E+00 +1.4500000E+00
      vertex   +1.8912933E+00 +5.2178663E+00 +1.4500000E+00
      vertex   +1.8912933E+00 +5.2178663E+00 +1.3500000E+00
    endloop
  endfacet
  facet normal -7.0710678E-01 +7.0710678E-01 +0.0000000E+00
    outer loop      
      vertex   +1.7096576E+00 +4.9678663E+00 +1.4500000E+00
      vertex   +1.8202735E+00 +5.0784821E+00 +1.4500000E+00
      vertex   +1.8202735E+00 +5.0784821E+00 +1.3500000E+00
    endloop
  endfacet
  facet normal -4.5399049E-01 +8.9100652E-01 +0.0000000E+00
    outer loop      
      vertex   +1.5702735E+00 +4.8968465E+00 +1.4500000E+00
      vertex   +1.7096576E+00 +4.9678663E+00 +1.4500000E+00
      vertex   +1.7096576E+00 +4.9678663E+00 +1.3500000E+00
    endloop
  endfacet
  facet normal -1.5643446E-01 +9.8768834E-01 +0.0000000E+00
    outer loop      
      vertex   +1.4157650E+00 +4.8723748E+00 +1.4500000E+00
      vertex   +1.5702735E+00 +4.8968465E+00 +1.4500000E+00
      vertex   +1.5702735E+00 +4.8968465E+00 +1.3500000E+00
    endloop
  endfacet
  facet normal +1.5643446E-01 +9.8768834E-01 +0.0000000E+00
    outer loop      
      vertex   +1.2612565E+00 +4.8968465E+00 +1.4500000E+00
      vertex   +1.4157650E+00 +4.8723748E+00 +1.4500000E+00
      vertex   +1.4157650E+00 +4.8723748E+00 +1.3500000E+00
    endloop
  endfacet
  facet normal +4.5399049E-01 +8.9100652E-01 +0.0000000E+00
    outer loop      
      vertex   +1.1218724E+00 +4.9678663E+00 +1.4500000E+00
      vertex   +1.2612565E+00 +4.8968465E+00 +1.4500000E+00
      vertex   +1.2612565E+00 +4.8968465E+00 +1.3500000E+00
    endloop
  endfacet
  facet normal +7.0710678E-01 +7.0710678E-01 +0.0000000E+00
    outer loop      
      vertex   +1.0112565E+00 +5.0784821E+00 +1.4500000E+00
      vertex   +1.1218724E+00 +4.9678663E+00 +1.4500000E+00
      vertex   +1.1218724E+00 +4.9678663E+00 +1.3500000E+00
    endloop
  endfacet
  facet normal +8.9100652E-01 +4.5399049E-01 +0.0000000E+00
    outer loop      
      vertex   +9.4023680E-01 +5.2178663E+00 +1.4500000E+00
      vertex   +1.0112565E+00 +5.0784821E+00 +1.4500000E+00
      vertex   +1.0112565E+00 +5.0784821E+00 +1.3500000E+00
    endloop
  endfacet
  facet normal +9.8768834E-01 +1.5643446E-01 +0.0000000E+00
    outer loop      
      vertex   +9.1576506E-01 +5.3723748E+00 +1.4500000E+00
      vertex   +9.4023680E-01 +5.2178663E+00 +1.4500000E+00
      vertex   +9.4023680E-01 +5.2178663E+00 +1.3500000E+00
    endloop
  endfacet
  facet normal +9.8768834E-01 -1.5643446E-01 +0.0000000E+00
    outer loop      
      vertex   +9.4023680E-01 +5.5268833E+00 +1.4500000E+00
      vertex   +9.1576506E-01 +5.3723748E+00 +1.4500000E+00
      vertex   +9.1576506E-01 +5.3723748E+00 +1.3500000E+00
    endloop
  endfacet
  facet normal +8.9100652E-01 -4.5399049E-01 +0.0000000E+00
    outer loop      
      vertex   +1.0112565E+00 +5.6662674E+00 +1.4500000E+00
      vertex   +9.4023680E-01 +5.5268833E+00 +1.4500000E+00
      vertex   +9.4023680E-01 +5.5268833E+00 +1.3500000E+00
    endloop
  endfacet
  facet normal +7.0710678E-01 -7.0710678E-01 +0.0000000E+00
    outer loop      
      vertex   +1.1218724E+00 +5.7768833E+00 +1.4500000E+00
      vertex   +1.0112565E+00 +5.6662674E+00 +1.4500000E+00
      vertex   +1.0112565E+00 +5.6662674E+00 +1.3500000E+00
    endloop
  endfacet
  facet normal +4.5399049E-01 -8.9100652E-01 +0.0000000E+00
    outer loop      
      vertex   +1.2612565E+00 +5.8479030E+00 +1.4500000E+00
      vertex   +1.1218724E+00 +5.7768833E+00 +1.4500000E+00
      vertex   +1.1218724E+00 +5.7768833E+00 +1.3500000E+00
    endloop
  endfacet
  facet normal +1.5643446E-01 -9.8768834E-01 +0.0000000E+00
    outer loop      
      vertex   +1.4157650E+00 +5.8723748E+00 +1.4500000E+00
      vertex   +1.2612565E+00 +5.8479030E+00 +1.4500000E+00
      vertex   +1.2612565E+00 +5.8479030E+00 +1.3500000E+00
    endloop
  endfacet
  facet normal -1.5643446E-01 -9.8768834E-01 +0.0000000E+00
    outer loop      
      vertex   +1.5702735E+00 +5.8479030E+00 +1.4500000E+00
      vertex   +1.4157650E+00 +5.8723748E+00 +1.4500000E+00
      vertex   +1.4157650E+00 +5.8723748E+00 +1.3500000E+00
    endloop
  endfacet
  facet normal -4.5399049E-01 -8.9100652E-01 +0.0000000E+00
    outer loop      
      vertex   +1.7096576E+00 +5.7768833E+00 +1.4500000E+00
      vertex   +1.5702735E+00 +5.8479030E+00 +1.4500000E+00
      vertex   +1.5702735E+00 +5.8479030E+00 +1.3500000E+00
    endloop
  endfacet
  facet normal -7.0710678E-01 -7.0710678E-01 +0.0000000E+00
    outer loop      
      vertex   +1.8202735E+00 +5.6662674E+00 +1.4500000E+00
      vertex   +1.7096576E+00 +5.7768833E+00 +1.4500000E+00
      vertex   +1.7096576E+00 +5.7768833E+00 +1.3500000E+00
    endloop
  endfacet
  facet normal -8.9100652E-01 -4.5399049E-01 +0.0000000E+00
    outer loop      
      vertex   +1.8912933E+00 +5.5268833E+00 +1.4500000E+00
      vertex   +1.8202735E+00 +5.6662674E+00 +1.4500000E+00
      vertex   +1.8202735E+00 +5.6662674E+00 +1.3500000E+00
    endloop
  endfacet
  facet normal -9.8768834E-01 -1.5643446E-01 +0.0000000E+00
    outer loop      
      vertex   +1.9157650E+00 +5.3723748E+00 +1.4500000E+00
      vertex   +1.8912933E+00 +5.5268833E+00 +1.4500000E+00
      vertex   +1.8912933E+00 +5.5268833E+00 +1.3500000E+00
    endloop
  endfacet
  facet normal -9.8768834E-01 -1.5643446E-01 +0.0000000E+00
    outer loop      
      vertex   +1.8912933E+00 +5.5268833E+00 +1.3500000E+00
      vertex   +1.9157650E+00 +5.3723748E+00 +1.3500000E+00
      vertex   +1.9157650E+00 +5.3723748E+00 +1.4500000E+00
    endloop
  endfacet
  facet normal -8.9100652E-01 -4.5399049E-01 +0.0000000E+00
    outer loop      
      vertex   +1.8202735E+00 +5.6662674E+00 +1.3500000E+00
      vertex   +1.8912933E+00 +5.5268833E+00 +1.3500000E+00
      vertex   +1.8912933E+00 +5.5268833E+00 +1.4500000E+00
    endloop
  endfacet
  facet normal -7.0710678E-01 -7.0710678E-01 +0.0000000E+00
    outer loop      
      vertex   +1.7096576E+00 +5.7768833E+00 +1.3500000E+00
      vertex   +1.8202735E+00 +5.6662674E+00 +1.3500000E+00
      vertex   +1.8202735E+00 +5.6662674E+00 +1.4500000E+00
    endloop
  endfacet
  facet normal -4.5399049E-01 -8.9100652E-01 +0.0000000E+00
    outer loop      
      vertex   +1.5702735E+00 +5.8479030E+00 +1.3500000E+00
      vertex   +1.7096576E+00 +5.7768833E+00 +1.3500000E+00
      vertex   +1.7096576E+00 +5.7768833E+00 +1.4500000E+00
    endloop
  endfacet
  facet normal -1.5643446E-01 -9.8768834E-01 +0.0000000E+00
    outer loop      
      vertex   +1.4157650E+00 +5.8723748E+00 +1.3500000E+00
      vertex   +1.5702735E+00 +5.8479030E+00 +1.3500000E+00
      vertex   +1.5702735E+00 +5.8479030E+00 +1.4500000E+00
    endloop
  endfacet
  facet normal +1.5643446E-01 -9.8768834E-01 +0.0000000E+00
    outer loop      
      vertex   +1.2612565E+00 +5.8479030E+00 +1.3500000E+00
      vertex   +1.4157650E+00 +5.8723748E+00 +1.3500000E+00
      vertex   +1.4157650E+00 +5.8723748E+00 +1.4500000E+00
    endloop
  endfacet
  facet normal +4.5399049E-01 -8.9100652E-01 +0.0000000E+00
    outer loop      
      vertex   +1.1218724E+00 +5.7768833E+00 +1.3500000E+00
      vertex   +1.2612565E+00 +5.8479030E+00 +1.3500000E+00
      vertex   +1.2612565E+00 +5.8479030E+00 +1.4500000E+00
    endloop
  endfacet
  facet normal +7.0710678E-01 -7.0710678E-01 +0.0000000E+00
    outer loop      
      vertex   +1.0112565E+00 +5.6662674E+00 +1.3500000E+00
      vertex   +1.1218724E+00 +5.7768833E+00 +1.3500000E+00
      vertex   +1.1218724E+00 +5.7768833E+00 +1.4500000E+00
    endloop
  endfacet
  facet normal +8.9100652E-01 -4.5399049E-01 +0.0000000E+00
    outer loop      
      vertex   +9.4023680E-01 +5.5268833E+00 +1.3500000E+00
      vertex   +1.0112565E+00 +5.6662674E+00 +1.3500000E+00
      vertex   +1.0112565E+00 +5.6662674E+00 +1.4500000E+00
    endloop
  endfacet
  facet normal +9.8768834E-01 -1.5643446E-01 +0.0000000E+00
    outer loop      
      vertex   +9.1576506E-01 +5.3723748E+00 +1.3500000E+00
      vertex   +9.4023680E-01 +5.5268833E+00 +1.3500000E+00
      vertex   +9.4023680E-01 +5.5268833E+00 +1.4500000E+00
    endloop
  endfacet
  facet normal +9.8768834E-01 +1.5643446E-01 +0.0000000E+00
    outer loop      
      vertex   +9.4023680E-01 +5.2178663E+00 +1.3500000E+00
      vertex   +9.1576506E-01 +5.3723748E+00 +1.3500000E+00
      vertex   +9.1576506E-01 +5.3723748E+00 +1.4500000E+00
    endloop
  endfacet
  facet normal +8.9100652E-01 +4.5399049E-01 +0.0000000E+00
    outer loop      
      vertex   +1.0112565E+00 +5.0784821E+00 +1.3500000E+00
      vertex   +9.4023680E-01 +5.2178663E+00 +1.3500000E+00
      vertex   +9.4023680E-01 +5.2178663E+00 +1.4500000E+00
    endloop
  endfacet
  facet normal +7.0710678E-01 +7.0710678E-01 +0.0000000E+00
    outer loop      
      vertex   +1.1218724E+00 +4.9678663E+00 +1.3500000E+00
      vertex   +1.0112565E+00 +5.0784821E+00 +1.3500000E+00
      vertex   +1.0112565E+00 +5.0784821E+00 +1.4500000E+00
    endloop
  endfacet
  facet normal +4.5399049E-01 +8.9100652E-01 +0.0000000E+00
    outer loop      
      vertex   +1.2612565E+00 +4.8968465E+00 +1.3500000E+00
      vertex   +1.1218724E+00 +4.9678663E+00 +1.3500000E+00
      vertex   +1.1218724E+00 +4.9678663E+00 +1.4500000E+00
    endloop
  endfacet
  facet normal +1.5643446E-01 +9.8768834E-01 +0.0000000E+00
    outer loop      
      vertex   +1.4157650E+00 +4.8723748E+00 +1.3500000E+00
      vertex   +1.2612565E+00 +4.8968465E+00 +1.3500000E+00
      vertex   +1.2612565E+00 +4.8968465E+00 +1.4500000E+00
    endloop
  endfacet
  facet normal -1.5643446E-01 +9.8768834E-01 +0.0000000E+00
    outer loop      
      vertex   +1.5702735E+00 +4.8968465E+00 +1.3500000E+00
      vertex   +1.4157650E+00 +4.8723748E+00 +1.3500000E+00
      vertex   +1.4157650E+00 +4.8723748E+00 +1.4500000E+00
    endloop
  endfacet
  facet normal -4.5399049E-01 +8.9100652E-01 +0.0000000E+00
    outer loop      
      vertex   +1.7096576E+00 +4.9678663E+00 +1.3500000E+00
      vertex   +1.5702735E+00 +4.8968465E+00 +1.3500000E+00
      vertex   +1.5702735E+00 +4.8968465E+00 +1.4500000E+00
    endloop
  endfacet
  facet normal -7.0710678E-01 +7.0710678E-01 +0.0000000E+00
    outer loop      
      vertex   +1.8202735E+00 +5.0784821E+00 +1.3500000E+00
      vertex   +1.7096576E+00 +4.9678663E+00 +1.3500000E+00
      vertex   +1.7096576E+00 +4.9678663E+00 +1.4500000E+00
    endloop
  endfacet
  facet normal -8.9100652E-01 +4.5399049E-01 +0.0000000E+00
    outer loop      
      vertex   +1.8912933E+00 +5.2178663E+00 +1.3500000E+00
      vertex   +1.8202735E+00 +5.0784821E+00 +1.3500000E+00
      vertex   +1.8202735E+00 +5.0784821E+00 +1.4500000E+00
    endloop
  endfacet
  facet normal -9.8768834E-01 +1.5643446E-01 +0.0000000E+00
    outer loop      
      vertex   +1.9157650E+00 +5.3723748E+00 +1.3500000E+00
      vertex   +1.8912933E+00 +5.2178663E+00 +1.3500000E+00
      vertex   +1.8912933E+00 +5.2178663E+00 +1.4500000E+00
    endloop
  endfacet
  facet normal +0.0000000E+00 +0.0000000E+00 +1.0000000E+00
    outer loop      
      vertex   +4.0000000E-01 +6.3343145E+00 +1.4500000E+00
      vertex   +1.0112565E+00 +5.6662674E+00 +1.4500000E+00
      vertex   +1.1218724E+00 +5.7768833E+00 +1.4500000E+00
    endloop
  endfacet
  facet normal +0.0000000E+00 +0.0000000E+00 +1.0000000E-00
    outer loop      
      vertex   +4.0000000E-01 +6.3343145E+00 +1.4500000E+00
      vertex   +4.0000000E-01 +6.6568543E-01 +1.4500000E+00
      vertex   +9.4023680E-01 +5.2178663E+00 +1.4500000E+00
    endloop
  endfacet
  facet normal +0.0000000E+00 +0.0000000E+00 +1.0000000E+00
    outer loop      
      vertex   +4.0000000E-01 +6.3343145E+00 +1.4500000E+00
      vertex   +9.4023680E-01 +5.5268833E+00 +1.4500000E+00
      vertex   +1.0112565E+00 +5.6662674E+00 +1.4500000E+00
    endloop
  endfacet
  facet normal +0.0000000E+00 +0.0000000E+00 +1.0000000E+00
    outer loop      
      vertex   +9.4023680E-01 +5.2178663E+00 +1.4500000E+00
      vertex   +9.1576506E-01 +5.3723748E+00 +1.4500000E+00
      vertex   +4.0000000E-01 +6.3343145E+00 +1.4500000E+00
    endloop
  endfacet
  facet normal +0.0000000E+00 +0.0000000E+00 +1.0000000E+00
    outer loop      
      vertex   +4.0000000E-01 +6.6568543E-01 +1.4500000E+00
      vertex   +1.2612565E+00 +4.8968465E+00 +1.4500000E+00
      vertex   +1.1218724E+00 +4.9678663E+00 +1.4500000E+00
    endloop
  endfacet
  facet normal +0.0000000E+00 +0.0000000E+00 +1.0000000E+00
    outer loop      
      vertex   +1.4157650E+00 +4.8723748E+00 +1.4500000E+00
      vertex   +1.2612565E+00 +4.8968465E+00 +1.4500000E+00
      vertex   +4.0000000E-01 +6.6568543E-01 +1.4500000E+00
    endloop
  endfacet
  facet normal +0.0000000E+00 +0.0000000E+00 +1.0000000E-00
    outer loop      
      vertex   +6.6568542E-01 +4.0000001E-01 +1.4500000E+00
      vertex   +6.3343145E+00 +4.0000001E-01 +1.4500000E+00
      vertex   +1.5702735E+00 +4.8968465E+00 +1.4500000E+00
    endloop
  endfacet
  facet normal +0.0000000E+00 +0.0000000E+00 +1.0000000E+00
    outer loop      
      vertex   +9.1576506E-01 +5.3723748E+00 +1.4500000E+00
      vertex   +9.4023680E-01 +5.5268833E+00 +1.4500000E+00
      vertex   +4.0000000E-01 +6.3343145E+00 +1.4500000E+00
    endloop
  endfacet
  facet normal +0.0000000E+00 +0.0000000E+00 +1.0000000E+00
    outer loop      
      vertex   +1.1218724E+00 +4.9678663E+00 +1.4500000E+00
      vertex   +1.0112565E+00 +5.0784821E+00 +1.4500000E+00
      vertex   +4.0000000E-01 +6.6568543E-01 +1.4500000E+00
    endloop
  endfacet
  facet normal +0.0000000E+00 +0.0000000E+00 +1.0000000E+00
    outer loop      
      vertex   +1.5702735E+00 +4.8968465E+00 +1.4500000E+00
      vertex   +1.4157650E+00 +4.8723748E+00 +1.4500000E+00
      vertex   +6.6568542E-01 +4.0000001E-01 +1.4500000E+00
    endloop
  endfacet
  facet normal +0.0000000E+00 +0.0000000E+00 +1.0000000E+00
    outer loop      
      vertex   +6.6568542E-01 +6.6000000E+00 +1.4500000E+00
      vertex   +1.4157650E+00 +5.8723748E+00 +1.4500000E+00
      vertex   +1.5702735E+00 +5.8479030E+00 +1.4500000E+00
    endloop
  endfacet
  facet normal +0.0000000E+00 +0.0000000E+00 +1.0000000E+00
    outer loop      
      vertex   +6.6568542E-01 +6.6000000E+00 +1.4500000E+00
      vertex   +1.1218724E+00 +5.7768833E+00 +1.4500000E+00
      vertex   +1.2612565E+00 +5.8479030E+00 +1.4500000E+00
    endloop
  endfacet
  facet normal +0.0000000E+00 +0.0000000E+00 +1.0000000E+00
    outer loop      
      vertex   +1.0112565E+00 +5.0784821E+00 +1.4500000E+00
      vertex   +9.4023680E-01 +5.2178663E+00 +1.4500000E+00
      vertex   +4.0000000E-01 +6.6568543E-01 +1.4500000E+00
    endloop
  endfacet
  facet normal +0.0000000E+00 +0.0000000E+00 +1.0000000E-00
    outer loop      
      vertex   +6.3343145E+00 +4.0000001E-01 +1.4500000E+00
      vertex   +1.7096576E+00 +4.9678663E+00 +1.4500000E+00
      vertex   +1.5702735E+00 +4.8968465E+00 +1.4500000E+00
    endloop
  endfacet
  facet normal +0.0000000E+00 +0.0000000E+00 +1.0000000E+00
    outer loop      
      vertex   +6.3343145E+00 +4.0000001E-01 +1.4500000E+00
      vertex   +6.6000000E+00 +6.6568543E-01 +1.4500000E+00
      vertex   +1.8202735E+00 +5.0784821E+00 +1.4500000E+00
    endloop
  endfacet
  facet normal +0.0000000E+00 +0.0000000E+00 +1.0000000E+00
    outer loop      
      vertex   +1.9157650E+00 +5.3723748E+00 +1.4500000E+00
      vertex   +6.6000000E+00 +6.3343145E+00 +1.4500000E+00
      vertex   +6.3343145E+00 +6.6000000E+00 +1.4500000E+00
    endloop
  endfacet
  facet normal +0.0000000E+00 +0.0000000E+00 +1.0000000E+00
    outer loop      
      vertex   +6.3343145E+00 +6.6000000E+00 +1.4500000E+00
      vertex   +1.7096576E+00 +5.7768833E+00 +1.4500000E+00
      vertex   +1.8202735E+00 +5.6662674E+00 +1.4500000E+00
    endloop
  endfacet
  facet normal +0.0000000E+00 +0.0000000E+00 +1.0000000E+00
    outer loop      
      vertex   +1.2612565E+00 +5.8479030E+00 +1.4500000E+00
      vertex   +1.4157650E+00 +5.8723748E+00 +1.4500000E+00
      vertex   +6.6568542E-01 +6.6000000E+00 +1.4500000E+00
    endloop
  endfacet
  facet normal +0.0000000E+00 +0.0000000E+00 +1.0000000E+00
    outer loop      
      vertex   +4.0000000E-01 +6.6568543E-01 +1.4500000E+00
      vertex   +6.6568542E-01 +4.0000001E-01 +1.4500000E+00
      vertex   +1.4157650E+00 +4.8723748E+00 +1.4500000E+00
    endloop
  endfacet
  facet normal +0.0000000E+00 +0.0000000E+00 +1.0000000E+00
    outer loop      
      vertex   +6.6000000E+00 +6.6568543E-01 +1.4500000E+00
      vertex   +1.8912933E+00 +5.2178663E+00 +1.4500000E+00
      vertex   +1.8202735E+00 +5.0784821E+00 +1.4500000E+00
    endloop
  endfacet
  facet normal +0.0000000E+00 +0.0000000E+00 +1.0000000E+00
    outer loop      
      vertex   +1.8202735E+00 +5.6662674E+00 +1.4500000E+00
      vertex   +1.8912933E+00 +5.5268833E+00 +1.4500000E+00
      vertex   +6.3343145E+00 +6.6000000E+00 +1.4500000E+00
    endloop
  endfacet
  facet normal +0.0000000E+00 +0.0000000E+00 +1.0000000E+00
    outer loop      
      vertex   +1.5702735E+00 +5.8479030E+00 +1.4500000E+00
      vertex   +6.3343145E+00 +6.6000000E+00 +1.4500000E+00
      vertex   +6.6568542E-01 +6.6000000E+00 +1.4500000E+00
    endloop
  endfacet
  facet normal +0.0000000E+00 +0.0000000E+00 +1.0000000E+00
    outer loop      
      vertex   +1.8202735E+00 +5.0784821E+00 +1.4500000E+00
      vertex   +1.7096576E+00 +4.9678663E+00 +1.4500000E+00
      vertex   +6.3343145E+00 +4.0000001E-01 +1.4500000E+00
    endloop
  endfacet
  facet normal +0.0000000E+00 +0.0000000E+00 +1.0000000E-00
    outer loop      
      vertex   +6.6000000E+00 +6.3343145E+00 +1.4500000E+00
      vertex   +1.9157650E+00 +5.3723748E+00 +1.4500000E+00
      vertex   +1.8912933E+00 +5.2178663E+00 +1.4500000E+00
    endloop
  endfacet
  facet normal +0.0000000E+00 +0.0000000E+00 +1.0000000E+00
    outer loop      
      vertex   +1.5702735E+00 +5.8479030E+00 +1.4500000E+00
      vertex   +1.7096576E+00 +5.7768833E+00 +1.4500000E+00
      vertex   +6.3343145E+00 +6.6000000E+00 +1.4500000E+00
    endloop
  endfacet
  facet normal +0.0000000E+00 +0.0000000E+00 +1.0000000E+00
    outer loop      
      vertex   +1.8912933E+00 +5.2178663E+00 +1.4500000E+00
      vertex   +6.6000000E+00 +6.6568543E-01 +1.4500000E+00
      vertex   +6.6000000E+00 +6.3343145E+00 +1.4500000E+00
    endloop
  endfacet
  facet normal +0.0000000E+00 +0.0000000E+00 +1.0000000E+00
    outer loop      
      vertex   +1.1218724E+00 +5.7768833E+00 +1.4500000E+00
      vertex   +6.6568542E-01 +6.6000000E+00 +1.4500000E+00
      vertex   +4.0000000E-01 +6.3343145E+00 +1.4500000E+00
    endloop
  endfacet
  facet normal +0.0000000E+00 +0.0000000E+00 +1.0000000E+00
    outer loop      
      vertex   +6.3343145E+00 +6.6000000E+00 +1.4500000E+00
      vertex   +1.8912933E+00 +5.5268833E+00 +1.4500000E+00
      vertex   +1.9157650E+00 +5.3723748E+00 +1.4500000E+00
    endloop
  endfacet
  facet normal +7.0710678E-01 +0.0000000E+00 +7.0710678E-01
    outer loop      
      vertex   +7.0000000E+00 +6.5000000E+00 +1.0500000E+00
      vertex   +6.6000000E+00 +6.3343145E+00 +1.4500000E+00
      vertex   +6.6000000E+00 +6.6568543E-01 +1.4500000E+00
    endloop
  endfacet
  facet normal +7.0710678E-01 +0.0000000E+00 +7.0710678E-01
    outer loop      
      vertex   +6.6000000E+00 +6.6568543E-01 +1.4500000E+00
      vertex   +7.0000000E+00 +5.0000001E-01 +1.0500000E+00
      vertex   +7.0000000E+00 +6.5000000E+00 +1.0500000E+00
    endloop
  endfacet
  facet normal +5.0000000E-01 -4.9999999E-01 +7.0710678E-01
    outer loop      
      vertex   +7.0000000E+00 +5.0000001E-01 +1.0500000E+00
      vertex   +6.6000000E+00 +6.6568543E-01 +1.4500000E+00
      vertex   +6.3343145E+00 +4.0000001E-01 +1.4500000E+00
    endloop
  endfacet
  facet normal +4.9999999E-01 -5.0000000E-01 +7.0710678E-01
    outer loop      
      vertex   +6.3343145E+00 +4.0000001E-01 +1.4500000E+00
      vertex   +6.5000000E+00 +1.1969889E-08 +1.0500000E+00
      vertex   +7.0000000E+00 +5.0000001E-01 +1.0500000E+00
    endloop
  endfacet
  facet normal +2.6168207E-17 -7.0710678E-01 +7.0710678E-01
    outer loop      
      vertex   +5.0000000E-01 +1.1969889E-08 +1.0500000E+00
      vertex   +6.5000000E+00 +1.1969889E-08 +1.0500000E+00
      vertex   +6.3343145E+00 +4.0000001E-01 +1.4500000E+00
    endloop
  endfacet
  facet normal +5.5395843E-17 -7.0710678E-01 +7.0710678E-01
    outer loop      
      vertex   +6.3343145E+00 +4.0000001E-01 +1.4500000E+00
      vertex   +6.6568542E-01 +4.0000001E-01 +1.4500000E+00
      vertex   +5.0000000E-01 +1.1969889E-08 +1.0500000E+00
    endloop
  endfacet
  facet normal +7.0710678E-01 -7.0710678E-01 +0.0000000E+00
    outer loop      
      vertex   +6.5000000E+00 +1.1969889E-08 +1.0500000E+00
      vertex   +6.5000000E+00 +1.1969889E-08 +4.0000000E-01
      vertex   +7.0000000E+00 +5.0000001E-01 +4.0000000E-01
    endloop
  endfacet
  facet normal +7.0710678E-01 -7.0710678E-01 +0.0000000E+00
    outer loop      
      vertex   +7.0000000E+00 +5.0000001E-01 +4.0000000E-01
      vertex   +7.0000000E+00 +5.0000001E-01 +1.0500000E+00
      vertex   +6.5000000E+00 +1.1969889E-08 +1.0500000E+00
    endloop
  endfacet
  facet normal -4.9999999E-01 -5.0000000E-01 +7.0710678E-01
    outer loop      
      vertex   +0.0000000E+00 +5.0000001E-01 +1.0500000E+00
      vertex   +5.0000000E-01 +1.1969889E-08 +1.0500000E+00
      vertex   +6.6568542E-01 +4.0000001E-01 +1.4500000E+00
    endloop
  endfacet
  facet normal -4.9999999E-01 -4.9999999E-01 +7.0710678E-01
    outer loop      
      vertex   +6.6568542E-01 +4.0000001E-01 +1.4500000E+00
      vertex   +4.0000000E-01 +6.6568543E-01 +1.4500000E+00
      vertex   +0.0000000E+00 +5.0000001E-01 +1.0500000E+00
    endloop
  endfacet
  facet normal +0.0000000E+00 -1.0000000E-00 +0.0000000E+00
    outer loop      
      vertex   +6.5000000E+00 +1.1969889E-08 +1.0500000E+00
      vertex   +5.0000000E-01 +1.1969889E-08 +1.0500000E+00
      vertex   +5.0000000E-01 +1.1969889E-08 +4.0000000E-01
    endloop
  endfacet
  facet normal +0.0000000E+00 -1.0000000E+00 +0.0000000E+00
    outer loop      
      vertex   +5.0000000E-01 +1.1969889E-08 +4.0000000E-01
      vertex   +6.5000000E+00 +1.1969889E-08 +4.0000000E-01
      vertex   +6.5000000E+00 +1.1969889E-08 +1.0500000E+00
    endloop
  endfacet
  facet normal -7.0710678E-01 +0.0000000E+00 +7.0710678E-01
    outer loop      
      vertex   +0.0000000E+00 +5.0000001E-01 +1.0500000E+00
      vertex   +4.0000000E-01 +6.6568543E-01 +1.4500000E+00
      vertex   +4.0000000E-01 +6.3343145E+00 +1.4500000E+00
    endloop
  endfacet
  facet normal -7.0710678E-01 +0.0000000E+00 +7.0710678E-01
    outer loop      
      vertex   +4.0000000E-01 +6.3343145E+00 +1.4500000E+00
      vertex   +0.0000000E+00 +6.5000000E+00 +1.0500000E+00
      vertex   +0.0000000E+00 +5.0000001E-01 +1.0500000E+00
    endloop
  endfacet
  facet normal -7.0710678E-01 -7.0710678E-01 +0.0000000E+00
    outer loop      
      vertex   +5.0000000E-01 +1.1969889E-08 +1.0500000E+00
      vertex   +0.0000000E+00 +5.0000001E-01 +1.0500000E+00
      vertex   +0.0000000E+00 +5.0000001E-01 +4.0000000E-01
    endloop
  endfacet
  facet normal -7.0710678E-01 -7.0710678E-01 +0.0000000E+00
    outer loop      
      vertex   +0.0000000E+00 +5.0000001E-01 +4.0000000E-01
      vertex   +5.0000000E-01 +1.1969889E-08 +4.0000000E-01
      vertex   +5.0000000E-01 +1.1969889E-08 +1.0500000E+00
    endloop
  endfacet
  facet normal -4.9999999E-01 +4.9999999E-01 +7.0710678E-01
    outer loop      
      vertex   +0.0000000E+00 +6.5000000E+00 +1.0500000E+00
      vertex   +4.0000000E-01 +6.3343145E+00 +1.4500000E+00
      vertex   +6.6568542E-01 +6.6000000E+00 +1.4500000E+00
    endloop
  endfacet
  facet normal -4.9999999E-01 +5.0000000E-01 +7.0710678E-01
    outer loop      
      vertex   +6.6568542E-01 +6.6000000E+00 +1.4500000E+00
      vertex   +5.0000000E-01 +7.0000000E+00 +1.0500000E+00
      vertex   +0.0000000E+00 +6.5000000E+00 +1.0500000E+00
    endloop
  endfacet
  facet normal -1.0000000E+00 +0.0000000E+00 +0.0000000E+00
    outer loop      
      vertex   +0.0000000E+00 +5.0000001E-01 +1.0500000E+00
      vertex   +0.0000000E+00 +6.5000000E+00 +1.0500000E+00
      vertex   +0.0000000E+00 +6.5000000E+00 +4.0000000E-01
    endloop
  endfacet
  facet normal -1.0000000E+00 +0.0000000E+00 +0.0000000E+00
    outer loop      
      vertex   +0.0000000E+00 +6.5000000E+00 +4.0000000E-01
      vertex   +0.0000000E+00 +5.0000001E-01 +4.0000000E-01
      vertex   +0.0000000E+00 +5.0000001E-01 +1.0500000E+00
    endloop
  endfacet
  facet normal -2.6168207E-17 +7.0710678E-01 +7.0710678E-01
    outer loop      
      vertex   +6.5000000E+00 +7.0000000E+00 +1.0500000E+00
      vertex   +5.0000000E-01 +7.0000000E+00 +1.0500000E+00
      vertex   +6.6568542E-01 +6.6000000E+00 +1.4500000E+00
    endloop
  endfacet
  facet normal +0.0000000E+00 +7.0710678E-01 +7.0710678E-01
    outer loop      
      vertex   +6.6568542E-01 +6.6000000E+00 +1.4500000E+00
      vertex   +6.3343145E+00 +6.6000000E+00 +1.4500000E+00
      vertex   +6.5000000E+00 +7.0000000E+00 +1.0500000E+00
    endloop
  endfacet
  facet normal -7.0710678E-01 +7.0710678E-01 +0.0000000E+00
    outer loop      
      vertex   +0.0000000E+00 +6.5000000E+00 +4.0000000E-01
      vertex   +0.0000000E+00 +6.5000000E+00 +1.0500000E+00
      vertex   +5.0000000E-01 +7.0000000E+00 +1.0500000E+00
    endloop
  endfacet
  facet normal -7.0710678E-01 +7.0710678E-01 +0.0000000E+00
    outer loop      
      vertex   +5.0000000E-01 +7.0000000E+00 +1.0500000E+00
      vertex   +5.0000000E-01 +7.0000000E+00 +4.0000000E-01
      vertex   +0.0000000E+00 +6.5000000E+00 +4.0000000E-01
    endloop
  endfacet
  facet normal +5.0000000E-01 +5.0000000E-01 +7.0710678E-01
    outer loop      
      vertex   +7.0000000E+00 +6.5000000E+00 +1.0500000E+00
      vertex   +6.5000000E+00 +7.0000000E+00 +1.0500000E+00
      vertex   +6.3343145E+00 +6.6000000E+00 +1.4500000E+00
    endloop
  endfacet
  facet normal +5.0000000E-01 +4.9999999E-01 +7.0710678E-01
    outer loop      
      vertex   +6.3343145E+00 +6.6000000E+00 +1.4500000E+00
      vertex   +6.6000000E+00 +6.3343145E+00 +1.4500000E+00
      vertex   +7.0000000E+00 +6.5000000E+00 +1.0500000E+00
    endloop
  endfacet
  facet normal +1.0000000E+00 +0.0000000E+00 +0.0000000E+00
    outer loop      
      vertex   +7.0000000E+00 +6.5000000E+00 +1.0500000E+00
      vertex   +7.0000000E+00 +5.0000001E-01 +1.0500000E+00
      vertex   +7.0000000E+00 +5.0000001E-01 +4.0000000E-01
    endloop
  endfacet
  facet normal +1.0000000E+00 +0.0000000E+00 +0.0000000E+00
    outer loop      
      vertex   +7.0000000E+00 +5.0000001E-01 +4.0000000E-01
      vertex   +7.0000000E+00 +6.5000000E+00 +4.0000000E-01
      vertex   +7.0000000E+00 +6.5000000E+00 +1.0500000E+00
    endloop
  endfacet
  facet normal +0.0000000E+00 +1.0000000E-00 +0.0000000E+00
    outer loop      
      vertex   +5.0000000E-01 +7.0000000E+00 +1.0500000E+00
      vertex   +6.5000000E+00 +7.0000000E+00 +1.0500000E+00
      vertex   +6.5000000E+00 +7.0000000E+00 +4.0000000E-01
    endloop
  endfacet
  facet normal +0.0000000E+00 +1.0000000E+00 +0.0000000E+00
    outer loop      
      vertex   +6.5000000E+00 +7.0000000E+00 +4.0000000E-01
      vertex   +5.0000000E-01 +7.0000000E+00 +4.0000000E-01
      vertex   +5.0000000E-01 +7.0000000E+00 +1.0500000E+00
    endloop
  endfacet
  facet normal +7.0710678E-01 +7.0710678E-01 +0.0000000E+00
    outer loop      
      vertex   +6.5000000E+00 +7.0000000E+00 +1.0500000E+00
      vertex   +7.0000000E+00 +6.5000000E+00 +1.0500000E+00
      vertex   +7.0000000E+00 +6.5000000E+00 +4.0000000E-01
    endloop
  endfacet
  facet normal +7.0710678E-01 +7.0710678E-01 +0.0000000E+00
    outer loop      
      vertex   +7.0000000E+00 +6.5000000E+00 +4.0000000E-01
      vertex   +6.5000000E+00 +7.0000000E+00 +4.0000000E-01
      vertex   +6.5000000E+00 +7.0000000E+00 +1.0500000E+00
    endloop
  endfacet
  facet normal +5.0000000E-01 -5.0000000E-01 -7.0710678E-01
    outer loop      
      vertex   +7.0000000E+00 +5.0000001E-01 +4.0000000E-01
      vertex   +6.5000000E+00 +1.1969889E-08 +4.0000000E-01
      vertex   +6.3343145E+00 +4.0000001E-01 +0.0000000E+00
    endloop
  endfacet
  facet normal +5.0000000E-01 -5.0000000E-01 -7.0710678E-01
    outer loop      
      vertex   +6.3343145E+00 +4.0000001E-01 +0.0000000E+00
      vertex   +6.6000000E+00 +6.6568543E-01 +0.0000000E+00
      vertex   +7.0000000E+00 +5.0000001E-01 +4.0000000E-01
    endloop
  endfacet
  facet normal +0.0000000E+00 +0.0000000E+00 -1.0000000E+00
    outer loop      
      vertex   +6.6000000E+00 +6.6568543E-01 +0.0000000E+00
      vertex   +6.3343145E+00 +4.0000001E-01 +0.0000000E+00
      vertex   +6.6568542E-01 +4.0000001E-01 +0.0000000E+00
    endloop
  endfacet
  facet normal +0.0000000E+00 +0.0000000E+00 -1.0000000E+00
    outer loop      
      vertex   +4.0000000E-01 +6.6568543E-01 +0.0000000E+00
      vertex   +6.6568542E-01 +6.6000000E+00 +0.0000000E+00
      vertex   +6.3343145E+00 +6.6000000E+00 +0.0000000E+00
    endloop
  endfacet
  facet normal +0.0000000E+00 +0.0000000E+00 -1.0000000E+00
    outer loop      
      vertex   +4.0000000E-01 +6.6568543E-01 +0.0000000E+00
      vertex   +6.6000000E+00 +6.3343145E+00 +0.0000000E+00
      vertex   +6.6000000E+00 +6.6568543E-01 +0.0000000E+00
    endloop
  endfacet
  facet normal +0.0000000E+00 +0.0000000E+00 -1.0000000E+00
    outer loop      
      vertex   +4.0000000E-01 +6.6568543E-01 +0.0000000E+00
      vertex   +4.0000000E-01 +6.3343145E+00 +0.0000000E+00
      vertex   +6.6568542E-01 +6.6000000E+00 +0.0000000E+00
    endloop
  endfacet
  facet normal +0.0000000E+00 +0.0000000E+00 -1.0000000E+00
    outer loop      
      vertex   +6.3343145E+00 +6.6000000E+00 +0.0000000E+00
      vertex   +6.6000000E+00 +6.3343145E+00 +0.0000000E+00
      vertex   +4.0000000E-01 +6.6568543E-01 +0.0000000E+00
    endloop
  endfacet
  facet normal +0.0000000E+00 +0.0000000E+00 -1.0000000E+00
    outer loop      
      vertex   +6.6568542E-01 +4.0000001E-01 +0.0000000E+00
      vertex   +4.0000000E-01 +6.6568543E-01 +0.0000000E+00
      vertex   +6.6000000E+00 +6.6568543E-01 +0.0000000E+00
    endloop
  endfacet
  facet normal +0.0000000E+00 -7.0710678E-01 -7.0710678E-01
    outer loop      
      vertex   +5.0000000E-01 +1.1969889E-08 +4.0000000E-01
      vertex   +6.6568542E-01 +4.0000001E-01 +0.0000000E+00
      vertex   +6.3343145E+00 +4.0000001E-01 +0.0000000E+00
    endloop
  endfacet
  facet normal +0.0000000E+00 -7.0710678E-01 -7.0710678E-01
    outer loop      
      vertex   +6.3343145E+00 +4.0000001E-01 +0.0000000E+00
      vertex   +6.5000000E+00 +1.1969889E-08 +4.0000000E-01
      vertex   +5.0000000E-01 +1.1969889E-08 +4.0000000E-01
    endloop
  endfacet
  facet normal +7.0710678E-01 -5.2336415E-17 -7.0710678E-01
    outer loop      
      vertex   +7.0000000E+00 +6.5000000E+00 +4.0000000E-01
      vertex   +7.0000000E+00 +5.0000001E-01 +4.0000000E-01
      vertex   +6.6000000E+00 +6.6568543E-01 +0.0000000E+00
    endloop
  endfacet
  facet normal +7.0710678E-01 +0.0000000E+00 -7.0710678E-01
    outer loop      
      vertex   +6.6000000E+00 +6.6568543E-01 +0.0000000E+00
      vertex   +6.6000000E+00 +6.3343145E+00 +0.0000000E+00
      vertex   +7.0000000E+00 +6.5000000E+00 +4.0000000E-01
    endloop
  endfacet
  facet normal -5.0000000E-01 -5.0000000E-01 -7.0710678E-01
    outer loop      
      vertex   +0.0000000E+00 +5.0000001E-01 +4.0000000E-01
      vertex   +4.0000000E-01 +6.6568543E-01 +0.0000000E+00
      vertex   +6.6568542E-01 +4.0000001E-01 +0.0000000E+00
    endloop
  endfacet
  facet normal -5.0000000E-01 -5.0000000E-01 -7.0710678E-01
    outer loop      
      vertex   +6.6568542E-01 +4.0000001E-01 +0.0000000E+00
      vertex   +5.0000000E-01 +1.1969889E-08 +4.0000000E-01
      vertex   +0.0000000E+00 +5.0000001E-01 +4.0000000E-01
    endloop
  endfacet
  facet normal +5.0000000E-01 +5.0000000E-01 -7.0710678E-01
    outer loop      
      vertex   +7.0000000E+00 +6.5000000E+00 +4.0000000E-01
      vertex   +6.6000000E+00 +6.3343145E+00 +0.0000000E+00
      vertex   +6.3343145E+00 +6.6000000E+00 +0.0000000E+00
    endloop
  endfacet
  facet normal +5.0000000E-01 +5.0000000E-01 -7.0710678E-01
    outer loop      
      vertex   +6.3343145E+00 +6.6000000E+00 +0.0000000E+00
      vertex   +6.5000000E+00 +7.0000000E+00 +4.0000000E-01
      vertex   +7.0000000E+00 +6.5000000E+00 +4.0000000E-01
    endloop
  endfacet
  facet normal -7.0710678E-01 +0.0000000E+00 -7.0710678E-01
    outer loop      
      vertex   +0.0000000E+00 +5.0000001E-01 +4.0000000E-01
      vertex   +0.0000000E+00 +6.5000000E+00 +4.0000000E-01
      vertex   +4.0000000E-01 +6.3343145E+00 +0.0000000E+00
    endloop
  endfacet
  facet normal -7.0710678E-01 +0.0000000E+00 -7.0710678E-01
    outer loop      
      vertex   +4.0000000E-01 +6.3343145E+00 +0.0000000E+00
      vertex   +4.0000000E-01 +6.6568543E-01 +0.0000000E+00
      vertex   +0.0000000E+00 +5.0000001E-01 +4.0000000E-01
    endloop
  endfacet
  facet normal +0.0000000E+00 +7.0710678E-01 -7.0710678E-01
    outer loop      
      vertex   +5.0000000E-01 +7.0000000E+00 +4.0000000E-01
      vertex   +6.5000000E+00 +7.0000000E+00 +4.0000000E-01
      vertex   +6.3343145E+00 +6.6000000E+00 +0.0000000E+00
    endloop
  endfacet
  facet normal +0.0000000E+00 +7.0710678E-01 -7.0710678E-01
    outer loop      
      vertex   +6.3343145E+00 +6.6000000E+00 +0.0000000E+00
      vertex   +6.6568542E-01 +6.6000000E+00 +0.0000000E+00
      vertex   +5.0000000E-01 +7.0000000E+00 +4.0000000E-01
    endloop
  endfacet
  facet normal -5.0000000E-01 +5.0000000E-01 -7.0710678E-01
    outer loop      
      vertex   +0.0000000E+00 +6.5000000E+00 +4.0000000E-01
      vertex   +5.0000000E-01 +7.0000000E+00 +4.0000000E-01
      vertex   +6.6568542E-01 +6.6000000E+00 +0.0000000E+00
    endloop
  endfacet
  facet normal -5.0000000E-01 +5.0000000E-01 -7.0710678E-01
    outer loop      
      vertex   +6.6568542E-01 +6.6000000E+00 +0.0000000E+00
      vertex   +4.0000000E-01 +6.3343145E+00 +0.0000000E+00
      vertex   +0.0000000E+00 +6.5000000E+00 +4.0000000E-01
    endloop
  endfacet
endsolid
